<svg xmlns="http://www.w3.org/2000/svg" width="512" height="512" viewBox="0 0 64 64" fill="none">
  <rect width="64" height="64" rx="12" fill="#0B1D3A"/>
  <defs><linearGradient id="g" x1="0%" y1="100%" x2="100%" y2="0%"><stop offset="0%" stop-color="#00E8BF"/><stop offset="100%" stop-color="#5A9FFF"/></linearGradient></defs>
  <line x1="32" y1="52" x2="32" y2="27" stroke="url(#g)" stroke-width="3" stroke-linecap="round"/>
  <line x1="32" y1="34" x2="18" y2="21" stroke="url(#g)" stroke-width="2.5" stroke-linecap="round"/>
  <line x1="32" y1="27" x2="46" y2="16" stroke="url(#g)" stroke-width="2.5" stroke-linecap="round"/>
  <line x1="18" y1="21" x2="11" y2="13" stroke="url(#g)" stroke-width="2" stroke-linecap="round"/>
  <line x1="18" y1="21" x2="24" y2="12" stroke="url(#g)" stroke-width="2" stroke-linecap="round"/>
  <line x1="46" y1="16" x2="40" y2="10" stroke="url(#g)" stroke-width="2" stroke-linecap="round"/>
  <line x1="46" y1="16" x2="53" y2="12" stroke="url(#g)" stroke-width="2" stroke-linecap="round"/>
  <circle cx="32" cy="52" r="3.5" fill="#00E8BF"/>
  <circle cx="32" cy="34" r="2.5" fill="#5A9FFF" opacity="0.7"/>
  <circle cx="32" cy="27" r="3" fill="#5A9FFF"/>
  <circle cx="18" cy="21" r="2.5" fill="#5A9FFF"/>
  <circle cx="46" cy="16" r="2.5" fill="#5A9FFF"/>
  <circle cx="11" cy="13" r="2" fill="#00E8BF"/>
  <circle cx="24" cy="12" r="2" fill="#00E8BF"/>
  <circle cx="40" cy="10" r="2" fill="#00E8BF"/>
  <circle cx="53" cy="12" r="2" fill="#00E8BF"/>
</svg>